<?xml version="1.0"?>
<svg xmlns="http://www.w3.org/2000/svg" height="512px" viewBox="0 0 512.00107 512" width="512px" class=""><g><path d="m509.148438 188.171875c-6.347657-23.707031-22.421876-42.722656-44.085938-52.871094 2.042969-23.835937-6.390625-47.265625-23.742188-64.617187-17.355468-17.351563-40.78125-25.792969-64.617187-23.742188-10.148437-21.667968-29.167969-37.738281-52.871094-44.089844-23.707031-6.351562-48.210937-1.941406-67.832031 11.746094-19.617188-13.6875-44.125-18.097656-67.828125-11.746094-23.707031 6.351563-42.722656 22.425782-52.871094 44.089844-23.835937-2.042968-47.265625 6.390625-64.617187 23.742188-17.355469 17.351562-25.789063 40.78125-23.746094 64.617187-21.664062 10.148438-37.734375 29.164063-44.085938 52.871094-6.351562 23.703125-1.941406 48.210937 11.746094 67.828125-13.6875 19.621094-18.097656 44.128906-11.746094 67.832031 6.351563 23.703125 22.421876 42.722657 44.085938 52.871094-2.042969 23.835937 6.390625 47.265625 23.746094 64.617187 17.351562 17.351563 40.78125 25.792969 64.617187 23.742188 10.144531 21.664062 29.164063 37.738281 52.867188 44.085938 23.707031 6.351562 48.210937 1.945312 67.832031-11.746094 13.707031 9.5625 29.800781 14.601562 46.335938 14.597656 7.132812 0 14.355468-.9375 21.496093-2.851562 23.703125-6.347657 42.722657-22.421876 52.871094-44.085938 23.835937 2.039062 47.261719-6.390625 64.617187-23.742188 17.351563-17.355468 25.785157-40.78125 23.742188-64.617187 21.664062-10.148437 37.738281-29.167969 44.085938-52.871094 6.351562-23.707031 1.941406-48.210937-11.746094-67.832031 13.6875-19.617188 18.097656-44.125 11.746094-67.828125zm-101.714844 89.789063c0 65.871093-53.59375 119.464843-119.464844 119.464843-65.875 0-119.464844-53.589843-119.464844-119.464843v-14.460938c0-49.085938 39.933594-89.019531 89.019532-89.019531h3.613281c47.09375 0 85.40625 38.3125 85.40625 85.402343 0 30.726563-24.996094 55.722657-55.71875 55.722657-30.726563 0-55.722657-24.996094-55.722657-55.722657v-14.460937h30v14.460937c0 14.183594 11.539063 25.722657 25.722657 25.722657 14.179687 0 25.71875-11.539063 25.71875-25.722657 0-30.550781-24.851563-55.40625-55.40625-55.40625h-3.613281c-32.546876 0-59.023438 26.476563-59.023438 59.023438v14.460938c0 49.332031 40.136719 89.46875 89.46875 89.46875s89.464844-40.136719 89.464844-89.46875v-23.765626c0-66.875-54.40625-121.351562-121.28125-121.433593-.050782 0-.101563 0-.15625 0-32.40625 0-62.875 12.605469-85.808594 35.511719-22.972656 22.941406-35.621094 53.457031-35.621094 85.921874v68.863282h-29.996094v-68.863282c0-40.484374 15.773438-78.535156 44.417969-107.144531 28.601563-28.5625 66.597657-44.289062 107.007813-44.289062h.195312c83.394532.105469 151.242188 68.039062 151.242188 151.433593zm0 0" data-original="#000000" class="active-path" data-old_color="#000000" fill="#FFFFFF"/></g> </svg>
